<svg width="30" height="30" viewBox="0 0 30 30" fill="none" xmlns="http://www.w3.org/2000/svg">
<rect width="30" height="30" fill="white" fill-opacity="0.01"/>
<path d="M27.0282 21.7219L21.5626 16.2469V12.1876C21.5633 12.0642 21.5396 11.9419 21.493 11.8277C21.4463 11.7134 21.3776 11.6095 21.2907 11.5219L11.9157 2.14694C11.8285 2.05907 11.7248 1.98932 11.6106 1.94173C11.4964 1.89413 11.3738 1.86963 11.2501 1.86963C11.1263 1.86963 11.0038 1.89413 10.8895 1.94173C10.7753 1.98932 10.6716 2.05907 10.5844 2.14694L2.14694 10.5844C2.05907 10.6716 1.98932 10.7753 1.94173 10.8895C1.89413 11.0038 1.86963 11.1263 1.86963 11.2501C1.86963 11.3738 1.89413 11.4964 1.94173 11.6106C1.98932 11.7248 2.05907 11.8285 2.14694 11.9157L11.5219 21.2907C11.6095 21.3776 11.7134 21.4463 11.8277 21.493C11.9419 21.5396 12.0642 21.5633 12.1876 21.5626H16.2563L21.7219 27.0376C22.4256 27.7412 23.3799 28.1365 24.3751 28.1365C25.3702 28.1365 26.3245 27.7412 27.0282 27.0376C27.7318 26.3339 28.1271 25.3796 28.1271 24.3844C28.1271 23.3893 27.7318 22.435 27.0282 21.7313V21.7219ZM5.62506 9.75944L7.77194 11.9157L9.10319 10.5844L6.94694 8.43756L8.43756 6.94694L12.4594 10.9782L13.7907 9.64694L9.75944 5.62506L11.2501 4.13444L17.4282 10.3126L10.3126 17.4282L4.13444 11.2501L5.62506 9.75944ZM25.6969 25.6969C25.3456 26.0462 24.8704 26.2422 24.3751 26.2422C23.8797 26.2422 23.4045 26.0462 23.0532 25.6969L17.3063 19.9594C17.1065 19.8221 16.8795 19.7293 16.6407 19.6876H12.5719L11.6344 18.7501L18.7501 11.6344L19.6876 12.5719V16.6407C19.6886 16.8866 19.7862 17.1223 19.9594 17.2969L25.6969 23.0532C26.0462 23.4045 26.2422 23.8797 26.2422 24.3751C26.2422 24.8704 26.0462 25.3456 25.6969 25.6969Z" fill="white"/>
</svg>
