<svg width="29" height="29" viewBox="0 0 29 29" fill="none" xmlns="http://www.w3.org/2000/svg">
<rect width="29" height="29" fill="white" fill-opacity="0.01"/>
<path d="M3.625 9.0625H7.25C8.25104 9.0625 9.0625 8.25104 9.0625 7.25V3.625C9.0625 2.62396 8.25104 1.8125 7.25 1.8125H3.625C2.62396 1.8125 1.8125 2.62396 1.8125 3.625V7.25C1.8125 8.25104 2.62396 9.0625 3.625 9.0625ZM3.625 3.625H7.25V7.25H3.625V3.625Z" fill="white"/>
<path d="M25.375 19.9375H21.75C20.749 19.9375 19.9375 20.749 19.9375 21.75V25.375C19.9375 26.376 20.749 27.1875 21.75 27.1875H25.375C26.376 27.1875 27.1875 26.376 27.1875 25.375V21.75C27.1875 20.749 26.376 19.9375 25.375 19.9375ZM25.375 25.375H21.75V21.75H25.375V25.375Z" fill="white"/>
<path d="M19.4064 11.4061L18.125 12.6875L23.5625 18.125L29 12.6875L27.7186 11.4061L24.4688 14.6559V6.34375C24.4688 5.34271 23.6573 4.53125 22.6562 4.53125H10.875V6.34375H22.6562V14.6559L19.4064 11.4061Z" fill="white"/>
<path d="M6.34375 14.3441L9.59356 17.5939L10.875 16.3125L5.4375 10.875L0 16.3125L1.28144 17.5939L4.53125 14.3441V22.6562C4.53125 23.6573 5.34271 24.4688 6.34375 24.4688H18.125V22.6562H6.34375V14.3441Z" fill="white"/>
</svg>
