<svg width="30" height="30" viewBox="0 0 30 30" fill="none" xmlns="http://www.w3.org/2000/svg">
<rect width="30" height="30" transform="translate(30) rotate(90)" fill="white" fill-opacity="0.01"/>
<path d="M25.0378 27.8503L27.8503 25.0378C27.9374 24.9508 28.0065 24.8475 28.0536 24.7337C28.1007 24.62 28.125 24.4981 28.125 24.375C28.125 24.2519 28.1007 24.13 28.0536 24.0162C28.0065 23.9025 27.9374 23.7992 27.8503 23.7122L22.5 18.3618L22.5 16.0263C22.4983 13.8885 21.8331 11.804 20.5961 10.0605C19.3591 8.31705 17.6113 7.00058 15.5942 6.29285L3.12184 1.92766C2.95526 1.86942 2.77563 1.85937 2.60359 1.89867C2.43156 1.93797 2.27411 2.02503 2.14935 2.14984C2.0246 2.27464 1.9376 2.43213 1.89836 2.60418C1.85913 2.77623 1.86925 2.95586 1.92756 3.12241L6.29275 15.5946C7.00058 17.6117 8.31711 19.3594 10.0606 20.5963C11.8041 21.8332 13.8886 22.4983 16.0262 22.5L18.3617 22.5L23.7122 27.8503C23.7992 27.9374 23.9025 28.0065 24.0162 28.0536C24.1299 28.1007 24.2519 28.125 24.375 28.125C24.4981 28.125 24.62 28.1007 24.7337 28.0536C24.8474 28.0065 24.9508 27.9374 25.0378 27.8503V27.8503ZM19.4128 20.8997C19.237 20.7238 18.9986 20.625 18.75 20.625L16.0262 20.625C14.2772 20.6236 12.5717 20.0793 11.1452 19.0672C9.7187 18.0551 8.64156 16.6252 8.06247 14.9748L5.05403 6.38004L13.6742 15L15 13.6743L6.37984 5.05441L14.9747 8.06248C16.6252 8.64157 18.0551 9.71871 19.0672 11.1452C20.0793 12.5717 20.6236 14.2772 20.625 16.0263L20.625 18.75C20.625 18.9986 20.7238 19.237 20.8997 19.4128L25.8617 24.375L24.375 25.8618L19.4128 20.8997Z" fill="white"/>
</svg>
